<svg width="500" height="377" viewBox="0 0 500 377" fill="none" xmlns="http://www.w3.org/2000/svg">
<g clip-path="url(#clip0_235_381)">
<path fill-rule="evenodd" clip-rule="evenodd" d="M200.448 330.451C270.285 350.09 304.266 274.724 364.102 280.458C396.858 283.597 462.146 299.505 462 183.622C461.635 108.807 392.677 90.0729 321.568 128.441C300.643 136.624 284.122 134.088 266.186 125.957C248.249 117.826 225.18 81.5287 181.702 74.0613C50.8628 51.5896 -61.0871 256.903 200.448 330.451Z" fill="#213B83"/>
<path fill-rule="evenodd" clip-rule="evenodd" d="M366.406 142.23C367.716 141.593 370.067 142.829 368.703 144.817C365.684 149.219 377.362 158.014 373.613 150.264C373.212 149.435 371.157 143.706 374.065 146.664C376.974 149.622 381.028 162.695 378.406 167.199C376.104 171.151 370.013 173.032 361.699 173.254L361.325 173.263L361.148 173.274C356.246 173.501 352.53 170.468 350.131 164.561L350.016 164.273C347.587 158.089 348.253 153.132 352.18 149.791C352.252 149.73 352.328 149.675 352.408 149.628L352.532 149.561L366.406 142.23Z" fill="white"/>
<path fill-rule="evenodd" clip-rule="evenodd" d="M101.617 26.5097C101.045 25.6984 100.119 25.2312 99.1296 25.3524C98.1164 25.4753 97.2691 26.1798 96.9609 27.1519L96.8786 27.4118C96.8163 27.6037 96.742 27.8235 96.6549 28.0706C96.4063 28.7762 96.1049 29.5593 95.7489 30.4015C94.7367 32.796 93.4908 35.1858 92.0036 37.4091C88.7949 42.2059 84.9288 45.5451 80.3967 46.8312C79.6883 47.0322 79.277 47.7695 79.478 48.4779C79.58 48.8375 86.199 52.1455 92.956 51.3115C99.5101 50.5025 106.209 45.5615 106.263 45.2252L106.346 44.525L106.369 44.2904C106.838 39.1996 105.947 33.449 102.519 27.8784C102.235 27.4156 101.934 26.9593 101.617 26.5097Z" fill="#E7EAEE"/>
<path fill-rule="evenodd" clip-rule="evenodd" d="M115.256 27.9907L115.221 28.2599C114.746 31.7064 113.416 36.506 111.01 40.1264C108.047 44.5838 103.866 47.9926 99.6652 50.1894C93.6043 53.3583 87.0071 53.9385 80.5113 49.8217L80.2248 49.6372C76.8112 47.4045 74.2209 46.3295 70.6666 47.2166C67.1123 48.1038 65.386 50.6924 63.8517 53.0941L63.7814 53.1957C63.5354 53.5243 63.1757 53.7519 62.7702 53.832L56.0312 54.8993L58.4853 57.948C59.224 58.8721 59.749 59.5383 60.0604 59.9466L62.7578 63.5001C70.7967 74.0435 79.4481 84.1104 96.3186 80.6255L96.8904 80.5028C101.36 79.5093 105.107 82.1777 109.809 86.1106L110.813 86.9564C112.057 88.0088 115.816 91.3233 117.355 92.9188L117.858 93.4465L118.322 93.9456C118.419 94.0509 118.511 94.1522 118.598 94.2491L119.078 94.79L119.372 94.4421C122.555 90.611 124.548 84.776 125.58 79.9625C125.97 78.1438 126.193 76.4023 126.286 74.7956L126.298 74.5864C126.322 74.1167 126.333 73.7067 126.335 73.3642V73.11L125.854 73.2509C120.29 74.8289 114.029 74.9857 107.921 74.281C106.445 74.1108 122.633 61 119.31 44.0206C118.553 40.1508 118.072 34.9768 116.749 31.465C116.332 30.3574 115.9 29.3445 115.472 28.4388L115.256 27.9907Z" fill="white"/>
<path fill-rule="evenodd" clip-rule="evenodd" d="M367.11 144.327L353.26 151.06C349.94 153.885 349.376 158.086 351.567 163.664C352.335 165.62 354.258 170.282 354.258 168.451C354.258 167.879 367.11 159.479 369.575 160.301C371.855 161.061 367.76 154.21 366.611 151.06L367.11 144.155L367.49 143.467" fill="#E7EAEE"/>
<path fill-rule="evenodd" clip-rule="evenodd" d="M348.632 149.38C349.552 149.38 344.337 151.833 344.605 156.357C344.874 160.881 348.41 169.219 347.55 169.547C346.69 169.876 345.06 167.445 344.731 166.585C342.687 161.235 342.3 159.052 342.373 155.932C342.469 151.847 344.617 149.38 348.632 149.38Z" fill="#E7EAEE"/>
<ellipse cx="371.841" cy="153.861" rx="3.60011" ry="8.1328" fill="#E7EAEE"/>
<path fill-rule="evenodd" clip-rule="evenodd" d="M120.378 239.61C120.378 225.499 121.946 219.364 138.782 211.662C173.289 197.715 173.289 197.177 239.396 171.618C256.878 164.894 293.735 181.002 309.762 174.252C320.447 169.751 330.439 166.409 339.266 161.946C340.121 167.528 345.647 176.979 347.593 178.604C337.256 180.773 327.257 184.128 317.595 188.668C296.709 198.483 309.086 195.808 276.004 227.006C273.2 229.649 262.898 235.677 248.001 241.957C248.001 241.957 218.001 237.928 205.969 232.923C193.724 227.83 175.17 211.662 175.17 211.662C175.17 211.662 153.529 225.78 141.088 232.126C135.265 235.096 120.378 239.61 120.378 239.61Z" fill="white"/>
<path fill-rule="evenodd" clip-rule="evenodd" d="M120.378 232.277C120.378 228.965 120.028 226.653 120.378 224.096C121.519 215.76 125.989 211.495 138.874 205.601C173.381 191.654 173.289 189.844 239.395 164.285C256.878 157.561 293.735 173.669 309.762 166.918C320.447 162.418 330.439 159.076 339.266 154.613C339.291 154.773 338.373 162.401 338.373 162.401C338.373 162.401 316.58 173.908 302.165 176.349C286.849 178.941 265.811 166.918 244.805 172.832C212.815 181.837 139.097 210.141 130.376 217.234C123.524 222.807 120.378 232.277 120.378 232.277Z" fill="#E7EAEE"/>
<path fill-rule="evenodd" clip-rule="evenodd" d="M101.617 26.5097C101.045 25.6984 100.119 25.2312 99.1296 25.3524C98.1164 25.4753 97.2691 26.1798 96.9609 27.1519L96.8786 27.4118C96.8163 27.6037 96.742 27.8235 96.6549 28.0706C96.4063 28.7762 96.1049 29.5593 95.7489 30.4015C94.7367 32.796 93.4908 35.1858 92.0036 37.4091C88.7949 42.2059 84.9288 45.5451 80.3967 46.8312C79.6883 47.0322 79.277 47.7695 79.478 48.4779C79.679 49.1863 90.6905 44.1683 94.2201 38.8917C95.809 36.5164 97.1313 33.98 98.2051 31.4398C98.5291 30.6735 98.811 29.9515 99.0526 29.2853L99.17 28.9569C99.2645 28.6886 99.3458 28.4479 99.4148 28.2355C99.4322 28.0839 99.4484 28.0332 99.4635 28.0833C107.102 33.3089 104.099 46.2777 104.833 46.3407C105.533 46.4009 106.153 45.9082 106.263 45.2252L106.346 44.525L106.369 44.2904C106.838 39.1996 105.947 33.449 102.519 27.8784C102.235 27.4156 101.934 26.9593 101.617 26.5097Z" fill="#E7EAEE"/>
<path fill-rule="evenodd" clip-rule="evenodd" d="M117.522 26.4706L117.69 26.771L117.896 27.1566C118.019 27.394 118.158 27.6694 118.309 27.9804C118.833 29.0583 119.362 30.2782 119.869 31.6235C121.295 35.4103 122.292 39.4971 122.633 43.755C123.095 49.5329 122.261 54.9859 120.148 59.9466L119.968 60.3631C118.251 64.2383 115.751 67.7889 112.506 70.9745L112.184 71.286L112.458 71.2992C117.131 71.4956 121.753 71.0772 125.816 69.7817C126.687 69.504 127.637 69.6474 128.388 70.1694C129.137 70.6905 129.603 71.5291 129.65 72.4404L129.66 72.7233L129.667 73.0971V73.2409C129.667 73.7626 129.651 74.3475 129.614 74.9884C129.512 76.7585 129.266 78.6679 128.839 80.6612C127.632 86.2923 125.219 91.5666 121.274 96.0105C120.75 96.6004 120.014 96.9539 119.231 96.9958L119.05 97C118.214 96.9842 117.45 96.6387 116.908 96.0484L116.51 95.5867L116.315 95.3654L115.901 94.9056L115.448 94.4159C115.29 94.2481 115.126 94.0758 114.956 93.8996C113.508 92.3978 111.909 90.9088 110.212 89.5389C105.506 85.7417 100.967 83.5978 97.0903 83.8302C90.7491 84.2112 85.4979 83.9149 80.6261 82.548C74.3278 80.7809 69.3822 77.3136 66.1094 71.794L65.9259 71.4793C64.2315 68.5244 61.729 65.1205 58.7771 61.5775C57.8648 60.4825 56.965 59.4414 56.1073 58.4785L55.7424 58.0707C55.1581 57.4207 54.6794 56.9027 54.4788 56.6918C53.738 55.9112 53.4805 54.7912 53.8041 53.7669L53.8517 53.6285C54.2072 52.6715 55.0341 51.9623 56.0419 51.7634L61.4461 50.6953L61.509 50.6043C63.4427 47.8557 66.2037 45.5276 69.8711 44.5898C73.6966 43.6116 77.722 44.4621 81.7759 47.0344L82.0588 47.2166C87.534 50.7976 92.9611 50.6 98.1208 47.9022C101.806 45.975 105.319 42.7027 107.981 38.6977C110.456 34.974 111.927 30.9933 112.032 27.8514C112.076 26.5384 112.981 25.411 114.255 25.0896C115.53 24.7673 116.863 25.3318 117.522 26.4706ZM115.256 27.9907L115.221 28.2599C114.746 31.7064 113.416 36.506 111.01 40.1264C108.047 44.5838 103.867 47.9926 99.6653 50.1894C93.6045 53.3583 87.0073 53.9385 80.5115 49.8217L80.225 49.6372C76.8114 47.4045 74.221 46.3295 70.6667 47.2166C67.1125 48.1038 65.3862 50.6924 63.8519 53.0941L63.7816 53.1957C63.5356 53.5243 63.1758 53.7519 62.7703 53.832L56.0314 54.8993L58.4855 57.948C59.2241 58.8721 59.7491 59.5383 60.0606 59.9466L62.7579 63.5001C70.7969 74.0435 79.4482 84.1104 96.3188 80.6255L96.8906 80.5028C101.36 79.5093 105.108 82.1777 109.809 86.1106L110.813 86.9564C112.057 88.0088 115.817 91.3233 117.355 92.9188L117.858 93.4465L118.322 93.9456C118.419 94.0509 118.511 94.1522 118.598 94.2491L119.078 94.79L119.373 94.4421C122.555 90.611 124.548 84.776 125.58 79.9625C125.97 78.1438 126.193 76.4023 126.287 74.7956L126.298 74.5864C126.322 74.1167 126.333 73.7067 126.335 73.3642V73.11L125.854 73.2509C120.29 74.8289 114.03 74.9857 107.921 74.281C106.445 74.1108 122.633 61 119.31 44.0206C118.553 40.1508 118.072 34.9768 116.75 31.465C116.332 30.3574 115.9 29.3445 115.472 28.4388L115.256 27.9907Z" fill="#E7EAEE"/>
<path fill-rule="evenodd" clip-rule="evenodd" d="M72.9999 58C74.2866 58 75.3333 56.9533 75.3333 55.6667C75.3333 54.38 74.2866 53.3333 72.9999 53.3333C71.7133 53.3333 70.6666 54.38 70.6666 55.6667C70.6666 56.9531 71.7133 58 72.9999 58Z" fill="#00160A"/>
<ellipse cx="74.9999" cy="64.3333" rx="3.66667" ry="3" fill="#FFB61D"/>
<ellipse cx="74.9999" cy="64.3333" rx="3.66667" ry="3" fill="#FFB61D"/>
<path fill-rule="evenodd" clip-rule="evenodd" d="M171.826 263.062C172.601 262.564 177.942 259.958 173.184 264.857C168.426 269.757 131.371 290.544 111.368 291.695C92.0887 292.805 74.9707 284.753 60.0779 274.215L59.5848 273.863L59.4861 273.99C58.8269 274.826 58.15 275.585 57.4539 276.266L57.1541 276.553C55.8926 277.737 53.7087 279.077 50.5545 280.635C49.7289 281.042 46.8139 281.417 48.3221 279.879C49.8309 278.34 53.1339 276.125 55.0574 274.854C56.9808 273.584 56.8911 271.984 57.8572 270.586C58.3949 269.808 59.4708 269.633 60.2273 270.2C74.909 281.204 92.06 287.069 111.368 285.958C130.756 284.842 150.779 276.604 171.826 263.062ZM285.858 269.236C286.535 268.612 286.535 273.065 285.858 273.689C277.77 281.152 263.863 286.759 244.137 287.963L243.537 287.998C223.517 289.15 197.627 277.073 195.324 274.758C193.021 272.443 196.853 273.759 197.628 274.257C208.745 281.406 223.975 284.452 243.346 283.337C262.692 282.223 278.37 276.146 285.858 269.236ZM366.406 142.23C367.716 141.594 370.067 142.829 368.703 144.817C365.684 149.22 371.987 162.136 371.172 162.562C370.356 162.989 369.349 162.673 368.923 161.857C366.614 157.44 365.289 153.932 364.958 151.266C364.793 149.939 364.757 148.655 364.849 147.417L364.862 147.273L354.188 152.462L354.053 152.586C351.644 154.846 350.584 157.47 352.347 162.118L352.452 162.388C354.366 167.261 357.606 170.757 360.977 170.611L361.24 170.598C368.731 170.447 373.208 168.193 374.806 165.448C376.816 161.997 377.361 158.014 373.613 150.265C373.212 149.436 371.157 143.706 374.065 146.664C376.974 149.623 381.028 162.695 378.405 167.199C376.215 170.959 370.596 172.842 362.896 173.208C362.942 173.405 362.954 173.612 362.923 173.824C362.193 178.773 359.935 181.887 356.157 182.788C353.269 183.477 350.166 182.564 347.323 180.367C337.33 182.513 327.658 185.781 318.304 190.177L316.919 190.833C312.147 193.112 309.411 194.64 307.413 196.125C306.241 196.996 305.273 197.888 304.232 199.036L304.064 199.227C302.886 200.593 298.469 206.086 296.446 208.428L295.888 209.069C291.194 214.447 285.279 220.55 277.147 228.219L276.92 228.427C273.871 231.151 265.769 235.756 255.666 240.4C283.547 239.41 303.652 228.77 316.172 208.459C316.723 207.565 317.953 207.397 318.723 208.11C340.252 228.049 365.197 237.277 393.654 235.836C422.187 234.391 443.126 226.974 456.534 213.66C457.187 213.012 458.243 213.016 458.891 213.669C459.54 214.322 459.536 215.378 458.883 216.026C444.816 229.993 414.953 240.474 385.668 241.957C357.187 243.399 340.193 231.664 318.465 212.376L317.933 211.901L317.743 212.193C303.981 233.048 274.084 248.259 244.247 248.474L243.311 248.478C212.793 248.478 195.193 233.701 174.603 213.504L174.443 213.346L174.37 213.408C154.159 230.401 139.55 243.176 117.228 246.366L116.538 246.463C92.122 251.403 55.0925 238.244 49.4021 231.795C43.7121 225.346 51.4746 230.31 52.2742 230.767C68.4342 240.019 87.0665 243.542 109.421 240.493C112.506 240.072 115.571 239.515 118.617 238.821L118.582 238.494C117.606 229.224 117.6 225.172 119.007 220.521C120.92 214.196 125.564 209.389 133.919 205.567L136.22 204.551C146.539 200.002 154.735 196.587 163.236 193.269L163.859 193.027C164.813 192.656 165.779 192.283 166.764 191.905L167.73 191.536C168.885 191.128 216.016 172.329 242.735 161.999C246.767 160.448 251.649 159.933 257.637 160.242L258.153 160.27C262.639 160.534 267.051 161.144 274.284 162.395L280.638 163.509C287.735 164.737 291.174 165.221 295.188 165.507C301.126 165.93 305.677 166.83 309.115 165.383C319.399 161.051 328.816 157.357 337.367 153.106C337.817 150.196 338.963 148.047 340.761 146.632C343.534 144.448 347.46 144.411 350.865 145.735C351.723 146.069 352.148 147.035 351.814 147.892C351.481 148.75 345.553 145.735 342.822 149.251C340.767 151.896 340.086 155.949 341.905 163.929C343.224 169.712 351.773 179.546 355.384 179.546C359.496 179.546 360.389 175.466 360.918 173.279C356.13 173.403 352.492 170.375 350.131 164.56L350.015 164.272C347.587 158.089 348.253 153.133 352.18 149.791C352.252 149.73 352.328 149.676 352.408 149.628L352.532 149.561L366.406 142.23ZM336.902 156.401C329.135 160.246 320.685 164.102 311.554 167.971L310.409 168.454C306.499 170.101 301.616 171.264 295.429 170.864L294.951 170.832C290.724 170.531 287.169 170.026 279.714 168.731L274.147 167.755C258.457 165.038 250.605 164.615 244.135 167.034C244.135 167.034 147.647 203.329 135.288 208.606C127.772 212.044 125.222 215.28 122.114 220.521C120.237 223.687 120.771 233.354 120.824 238.294C139.069 233.731 156.608 224.246 173.45 209.817C174.114 209.249 175.104 209.29 175.719 209.911C177.081 211.289 178.468 212.618 179.877 213.902L249.357 184.874C249.548 184.794 249.745 184.754 249.939 184.747C250.463 184.5 251.027 184.295 251.633 184.134C257.691 182.523 262.528 185.144 265.871 191.595L271.929 187.177C272.823 186.525 274.091 186.908 274.474 187.944C280.001 202.881 278.392 213.116 269.291 218.055C260.113 223.035 252.132 218.928 245.909 206.48C245.593 205.848 245.718 205.119 246.156 204.627C244.673 198.6 244.396 193.799 245.405 190.322L184.528 217.91C193.631 225.301 203.627 230.874 214.523 234.634C214.772 234.396 215.042 234.191 215.306 234.046C225.278 228.584 251.108 222.124 253.728 221.422C256.347 220.72 253.664 223.167 252.873 223.533L252.771 223.576L219.773 236.283C229.59 239.079 240.1 240.478 251.311 240.478C251.949 240.478 252.583 240.471 253.213 240.462C260.152 235.951 272.738 227.794 274.86 225.793L275.816 224.89C290.066 211.062 296.672 198.414 305.736 191.888C310.409 188.523 311.306 188.448 316.887 185.826C325.432 181.81 335.167 179.528 344.245 177.351C344.073 177.143 343.902 176.93 343.734 176.711C343.675 176.648 343.618 176.587 343.569 176.528C342.184 174.844 340.458 172.936 339.142 170.024L338.973 169.646C337.093 165.435 336.869 160.704 336.984 156.804L337.002 156.35L336.902 156.401ZM267.065 194.85L267.158 195.368C268.167 201.27 267.478 205.127 264.679 206.812L264.533 206.897C261.616 208.533 258.87 207.378 256.574 204.016L256.473 203.867L249.726 206.592L249.882 206.876C255.039 216.183 260.756 218.771 267.483 215.24L267.701 215.124C274.457 211.458 276.121 203.976 272.417 192.214L272.183 191.488L272.084 191.188L267.065 194.85ZM263.628 194.636C260.887 188.336 257.292 186.079 252.49 187.355C248.341 188.459 247.035 193.247 249.039 202.33L249.221 203.133L256.551 200.241C256.57 200.233 256.591 200.228 256.611 200.221C256.639 200.211 256.666 200.2 256.694 200.191C256.724 200.183 256.754 200.177 256.784 200.17C256.803 200.165 256.822 200.159 256.842 200.155C256.869 200.15 256.897 200.146 256.925 200.142C256.952 200.139 256.979 200.134 257.006 200.132C257.031 200.129 257.056 200.129 257.082 200.128C257.103 200.127 257.125 200.125 257.146 200.125C257.178 200.125 257.21 200.125 257.242 200.127C257.263 200.128 257.284 200.129 257.305 200.131C257.332 200.133 257.359 200.137 257.386 200.141C257.407 200.143 257.429 200.146 257.451 200.15C257.483 200.156 257.514 200.163 257.546 200.171C257.563 200.175 257.58 200.178 257.596 200.183C257.626 200.191 257.656 200.2 257.685 200.21C257.704 200.216 257.722 200.222 257.74 200.228C257.767 200.238 257.794 200.25 257.82 200.262C257.843 200.271 257.865 200.281 257.887 200.292C257.908 200.302 257.929 200.312 257.949 200.323C257.972 200.336 257.995 200.349 258.017 200.362C258.039 200.375 258.06 200.388 258.081 200.401C258.103 200.416 258.125 200.431 258.146 200.447C258.166 200.462 258.186 200.477 258.205 200.492C258.224 200.507 258.242 200.523 258.261 200.539C258.28 200.556 258.299 200.574 258.318 200.592C258.336 200.609 258.354 200.627 258.371 200.645C258.389 200.665 258.408 200.684 258.426 200.705C258.44 200.722 258.454 200.74 258.469 200.758C258.489 200.784 258.509 200.81 258.528 200.838C258.535 200.848 258.542 200.859 258.55 200.87C258.571 200.902 258.591 200.935 258.61 200.969C258.613 200.974 258.617 200.978 258.62 200.983C260.295 204.006 261.59 204.727 262.903 203.99C264.291 203.212 264.726 200.286 263.713 195.058L263.628 194.636ZM114.255 25.0897C115.529 24.7675 116.863 25.3318 117.522 26.4706L117.69 26.7714L117.895 27.1561C118.019 27.3935 118.158 27.6694 118.309 27.9804C118.833 29.0583 119.362 30.2786 119.869 31.6239C121.295 35.4105 122.292 39.4971 122.633 43.7548C123.095 49.5326 122.26 54.9855 120.148 59.9462L119.968 60.3632C118.251 64.2384 115.751 67.7889 112.506 70.9745L112.184 71.286L112.458 71.2997C117.131 71.496 121.753 71.0776 125.816 69.7821C126.687 69.5044 127.638 69.6478 128.388 70.1698C129.137 70.691 129.602 71.5293 129.649 72.4403L129.66 72.7235L129.667 73.0975V73.2411C129.667 73.7627 129.651 74.3474 129.614 74.9882C129.512 76.7582 129.267 78.6678 128.84 80.661C127.633 86.2922 125.219 91.5668 121.274 96.0106C120.751 96.6005 120.014 96.954 119.231 96.996L119.05 96.9999C118.214 96.984 117.451 96.6388 116.908 96.0487L116.511 95.5868L116.315 95.3651L115.901 94.9052L115.448 94.4159C115.29 94.2481 115.126 94.0756 114.956 93.8993C113.507 92.3977 111.909 90.9088 110.212 89.5389C105.506 85.7419 100.967 83.5977 97.0906 83.83C90.7494 84.211 85.4976 83.9146 80.6258 82.5477C74.3276 80.7806 69.3819 77.3134 66.1092 71.7938L65.9256 71.4794C64.2312 68.5244 61.729 65.12 58.7771 61.577C57.8649 60.4822 56.9648 59.4413 56.1072 58.4784L55.742 58.0702C55.1579 57.4204 54.6789 56.9032 54.4783 56.6923C53.7375 55.9116 53.4808 54.7907 53.8045 53.7665L53.8514 53.6288C54.2069 52.6717 55.034 51.9625 56.0418 51.7636L61.4461 50.6952L61.5086 50.6044C63.4422 47.8558 66.2035 45.5275 69.8709 44.5897C73.4801 43.6668 77.2674 44.3722 81.0887 46.6151C85.3233 45.1966 88.9597 41.9597 92.0037 37.4091C93.4909 35.1858 94.7366 32.7957 95.7488 30.4013C96.1048 29.5591 96.4065 28.7757 96.6551 28.0702C96.7421 27.8233 96.8164 27.6038 96.8787 27.412L96.9607 27.1522C97.269 26.1802 98.1165 25.4753 99.1297 25.3524C100.119 25.2313 101.045 25.6984 101.617 26.5097C101.934 26.9592 102.235 27.4161 102.519 27.8788C105.18 32.2021 106.311 36.6337 106.466 40.7811C106.995 40.1122 107.503 39.4169 107.981 38.6972C110.456 34.9736 111.927 30.9932 112.032 27.8515C112.076 26.5385 112.981 25.4113 114.255 25.0897ZM115.221 28.2597C114.747 31.7061 113.416 36.5064 111.01 40.1268C109.58 42.2782 107.864 44.1826 106.001 45.827C105.893 45.9657 105.759 46.0808 105.607 46.1679C103.721 47.7784 101.696 49.1271 99.6648 50.1893C93.6041 53.3581 87.0072 53.9379 80.5115 49.8212L80.2254 49.6376C76.8118 47.4049 74.2211 46.3296 70.6668 47.2167C67.1126 48.1038 65.3856 50.6919 63.8514 53.0936L63.781 53.1952C63.5351 53.5238 63.1758 53.7518 62.7703 53.8319L56.0311 54.8993L58.4852 57.9481C59.2236 58.872 59.7489 59.5379 60.0603 59.9462L62.7576 63.4999C70.7966 74.0433 79.4486 84.1108 96.3191 80.6259L96.8904 80.5028C101.36 79.5094 105.107 82.1776 109.808 86.1102L110.813 86.9559C112.057 88.0083 115.816 91.3234 117.355 92.9188L117.858 93.4462L118.322 93.9452C118.419 94.0505 118.511 94.1521 118.598 94.2489L119.078 94.7899L119.373 94.4423C122.555 90.6112 124.548 84.7762 125.58 79.9628C125.97 78.1441 126.194 76.4025 126.287 74.7958L126.298 74.5868C126.322 74.1172 126.333 73.7066 126.335 73.3641V73.1102L125.854 73.2509C120.29 74.8289 114.029 74.9859 107.921 74.2811C106.446 74.1103 122.633 60.9994 119.31 44.0204C118.553 40.1506 118.072 34.9765 116.75 31.4647C116.333 30.3572 115.9 29.344 115.471 28.4384L115.256 27.9911L115.221 28.2597ZM72.9998 53.3329C74.2864 53.3329 75.3338 54.3802 75.3338 55.6669C75.3337 56.9534 74.2864 57.9999 72.9998 57.9999C71.7134 57.9998 70.6669 56.9532 70.6668 55.6669C70.6668 54.3803 71.7133 53.333 72.9998 53.3329ZM99.4637 28.0829C99.4487 28.0333 99.4322 28.0841 99.4148 28.2352C99.3458 28.4477 99.2643 28.6886 99.1697 28.9569L99.0525 29.285C98.811 29.9512 98.5288 30.6731 98.2049 31.4393C97.1311 33.9794 95.8093 36.5162 94.2205 38.8915C91.8507 42.4342 86.107 45.8589 82.5281 47.5136C87.8441 50.7836 93.1085 50.523 98.1209 47.9022C100.482 46.6675 102.77 44.8781 104.811 42.7001C104.914 38.4483 104.54 31.5556 99.4637 28.0829Z" fill="#00160A"/>
</g>
<defs>
<clipPath id="clip0_235_381">
<rect width="500" height="377" fill="white"/>
</clipPath>
</defs>
</svg>
